<svg id="Calque_1" data-name="Calque 1" xmlns="http://www.w3.org/2000/svg" viewBox="0 0 40.44 33.7"><defs><style>.cls-1{fill:#e63e1c;}</style></defs><title>next</title><path class="cls-1" d="M953.75,331.19,936,317.08a2.83,2.83,0,0,0-2.72.12,2.71,2.71,0,0,0-1.33,2.33v28.23a2.73,2.73,0,0,0,1.33,2.33,2.84,2.84,0,0,0,2.72.11l17.76-14.12c.86-.8,1.53-1.4,1.53-2.45s-.57-1.6-1.53-2.44" transform="translate(-931.95 -316.79)"/><path class="cls-1" d="M970.85,331.19l-17.76-14.11a2.83,2.83,0,0,0-2.72.12,2.72,2.72,0,0,0-1.33,2.33v28.23a2.73,2.73,0,0,0,1.33,2.33,2.84,2.84,0,0,0,2.72.11l17.76-14.12c.85-.8,1.53-1.4,1.53-2.45s-.58-1.6-1.53-2.44" transform="translate(-931.95 -316.79)"/></svg>