<svg id="Calque_1" data-name="Calque 1" xmlns="http://www.w3.org/2000/svg" viewBox="0 0 68.15 68.15"><defs><style>.cls-1{fill:#e63e1c;}.cls-2{fill:#fff;}</style></defs><title>play</title><path class="cls-1" d="M986.4,333.93a34.07,34.07,0,1,1-34.08-34.07,34.07,34.07,0,0,1,34.08,34.07" transform="translate(-918.26 -299.85)"/><polygon class="cls-2" points="51.7 34.08 25.85 51.7 25.85 16.45 51.7 34.08"/><path class="cls-2" d="M945.28,318.53v30.8l22.6-15.41Zm-1.17,34.2a1.18,1.18,0,0,1-1.18-1.18V316.3a1.17,1.17,0,0,1,1.84-1L970.62,333a1.17,1.17,0,0,1,0,1.94l-25.85,17.63a1.17,1.17,0,0,1-.66.21" transform="translate(-918.26 -299.85)"/></svg>