<svg id="Calque_1" data-name="Calque 1" xmlns="http://www.w3.org/2000/svg" viewBox="0 0 26.56 21.73"><defs><style>.cls-1{fill:#b1b1b1;}</style></defs><title>aleatoire</title><path class="cls-1" d="M427.78,319c-.36,0-.61.31-.61.87l0,5.71c0,.55.25.87.62.87a1,1,0,0,0,.52-.18l4.32-2.79a.81.81,0,0,0,0-1.47l-4.36-2.84a1,1,0,0,0-.52-.18m-.61,2.46c-6.06.8-10.62,4.25-10.62,8.39,0,2.39,1.52,4.54,4,6.1a3,3,0,0,0,1.6.56,1.26,1.26,0,0,0,.5-2.47c-2.09-1-3.4-2.53-3.4-4.19,0-2.66,3.39-4.89,8-5.52Zm10.35,1.49a1.44,1.44,0,0,0-1,2.46c2.41,1,4,2.65,4,4.44,0,2.66-3.39,4.89-8,5.52v2.87c6.06-.79,10.62-4.25,10.62-8.39,0-2.57-1.77-4.88-4.55-6.44a1.45,1.45,0,0,0-1-.46m-5.65,10.33a1,1,0,0,0-.52.18L427,336.29a.81.81,0,0,0,0,1.47l4.32,2.78a1,1,0,0,0,.52.18c.37,0,.63-.32.63-.87l0-5.71c0-.55-.25-.87-.61-.87" transform="translate(-416.55 -318.99)"/></svg>