<svg id="Calque_1" data-name="Calque 1" xmlns="http://www.w3.org/2000/svg" viewBox="0 0 23.3 20.8"><defs><style>.cls-1{fill:#b1b1b1;}</style></defs><title>repeat</title><path class="cls-1" d="M959.43,323.36a.4.4,0,0,0-.3.12.41.41,0,0,0-.12.3v2.5h-3.33a6.22,6.22,0,0,0-1.66.22,6.3,6.3,0,0,0-1.38.55,5.24,5.24,0,0,0-1.17.89,10.38,10.38,0,0,0-1,1.08,10.89,10.89,0,0,0-.83,1.3q-.44.78-.7,1.36l-.64,1.44q-.6,1.42-1,2.22a11.37,11.37,0,0,1-.58,1,5.38,5.38,0,0,1-.66.8,2.54,2.54,0,0,1-.9.59,3.13,3.13,0,0,1-1.13.2h-2.91a.4.4,0,0,0-.42.42v2.5a.4.4,0,0,0,.42.42H944a6.4,6.4,0,0,0,3-.76,5.2,5.2,0,0,0,1.17-.89,10.71,10.71,0,0,0,1-1.08,11,11,0,0,0,.83-1.3q.43-.78.7-1.36l.64-1.44q.6-1.42,1-2.22a11.31,11.31,0,0,1,.59-1,5.22,5.22,0,0,1,.66-.8,2.54,2.54,0,0,1,.9-.58,3.1,3.1,0,0,1,1.13-.19H959v2.5a.42.42,0,0,0,.42.42.41.41,0,0,0,.3-.12l4.16-4.16a.44.44,0,0,0,0-.6l-4.15-4.15a.49.49,0,0,0-.31-.13" transform="translate(-940.7 -323.36)"/><path class="cls-1" d="M944,326.27h-2.91a.4.4,0,0,0-.42.42v2.5a.4.4,0,0,0,.42.42H944a2.9,2.9,0,0,1,1.06.19,3,3,0,0,1,.82.45,3.6,3.6,0,0,1,.66.73,8.92,8.92,0,0,1,.53.82q.2.36.48.94a24.09,24.09,0,0,1,1.78-3.55,6.3,6.3,0,0,0-5.33-2.93" transform="translate(-940.7 -323.36)"/><path class="cls-1" d="M952.13,334.77a26.38,26.38,0,0,1-1.77,3.55,7.49,7.49,0,0,0,.73.9q.38.4.72.69a3.65,3.65,0,0,0,.77.52l.76.37a3.51,3.51,0,0,0,.82.24l.83.14q.34,0,.92.06l.75,0H959v2.5a.42.42,0,0,0,.71.3l4.16-4.16a.44.44,0,0,0,0-.6l-4.15-4.15a.49.49,0,0,0-.31-.13.4.4,0,0,0-.3.12.41.41,0,0,0-.12.3v2.5h-3.33a2.9,2.9,0,0,1-1.06-.19,3,3,0,0,1-.82-.46,3.57,3.57,0,0,1-.66-.73,8.62,8.62,0,0,1-.53-.82q-.2-.36-.48-.94" transform="translate(-940.7 -323.36)"/></svg>